<?xml version="1.0" standalone="no"?>
<!DOCTYPE svg PUBLIC "-//W3C//DTD SVG 20010904//EN"
 "http://www.w3.org/TR/2001/REC-SVG-20010904/DTD/svg10.dtd">
<svg version="1.0" xmlns="http://www.w3.org/2000/svg"
 width="300.000000pt" height="300.000000pt" viewBox="0 0 300.000000 300.000000"
 preserveAspectRatio="xMidYMid meet">
<metadata>
Created by potrace 1.14, written by Peter Selinger 2001-2017
</metadata>
<g transform="translate(0.000000,300.000000) scale(0.100000,-0.100000)"
fill="#000000" stroke="none">
<path d="M530 2318 c0 -4 90 -135 199 -290 110 -156 214 -303 231 -328 17 -25
66 -94 109 -154 l78 -110 -26 -37 c-14 -20 -109 -153 -211 -295 -102 -142
-202 -283 -224 -313 -40 -58 -162 -227 -179 -248 -7 -10 61 -13 335 -13 l345
0 50 77 c27 43 94 149 148 236 54 86 101 157 105 157 5 0 26 -30 125 -185 18
-27 66 -103 108 -168 l77 -117 346 0 345 0 -19 28 c-11 15 -160 222 -330 461
l-310 434 26 41 c15 23 30 46 35 51 38 51 167 230 346 480 47 66 89 125 94
130 4 6 32 44 62 85 40 55 50 76 40 80 -8 3 -153 5 -322 4 l-308 -1 -140 -211
c-77 -116 -144 -218 -150 -226 -8 -12 -41 31 -155 200 -79 118 -150 220 -158
226 -15 13 -672 18 -672 6z"/>
</g>
</svg>
